# xmcd CD database file
#
# Track frame offsets:
#	150
#	10537
#	25105
#	35065
#	45639
#	53371
#	64524
#	73832
#	87388
#	107039
#	123328
#	133482
#	144568
#	155979
#
# Disc length: 2176 seconds
#
# Revision: 0
# Processed by: cddbd v1.5.2PL0 Copyright (c) Steve Scherf et al.
# Submitted via: CDex 1.51
#
DISCID=c3087e0e
DTITLE=Various Artist - Trampska romance 2
DYEAR=1970
DGENRE=Country
TTITLE0=01-Westmeni_Pojd, divko, s nami
TTITLE1=02-Cervanek_Mam rad krasne devce
TTITLE2=03-Cervanek_Ztracena stopa
TTITLE3=04-Rackove_Stribrna hvezda na prsou
TTITLE4=05-Inkognito kvartet_Houpy-hou
TTITLE5=06-Cervanek_Pojd, kamarade
TTITLE6=07-Rackove_Taboraku, plapolej
TTITLE7=08-Westmeni_Niagara
TTITLE8=09-Cervanek_Odesel kamarad
TTITLE9=10-Rackove_Indianska laska
TTITLE10=11-Inkognito kvartet_Bez tebe tezko zit
TTITLE11=12-Cervanek_Modry dym
TTITLE12=13-Inkognito kvartet_Az svetylka vzplanou
TTITLE13=14-Westmeni_Libam te dnes naposledy
EXTD=YEAR: 1970
EXTT0=
EXTT1=
EXTT2=
EXTT3=
EXTT4=
EXTT5=
EXTT6=
EXTT7=
EXTT8=
EXTT9=
EXTT10=
EXTT11=
EXTT12=
EXTT13=
PLAYORDER=
